PathFileType	4	(X/Y/Z)	Patient4_TMGait_0pt2_02_left_24.trc.trc
DataRate	CameraRate	NumFrames	NumMarkers	Units	OrigDataRate	OrigDataStartFrame	OrigNumFrames
45.161290322581	45.161290322581	4	33	mm	45.161290322581	18	       141
Frame#	Time	R.Midfoot.Superior			Sacral			L.Shoulder			Chest			R.Shoulder			Neck			R.ASIS			L.ASIS			R.Thigh.Superior			R.Thigh.Lateral			R.Thigh.Inferior			R.Patella			L.Thigh.Superior			L.Thigh.Lateral			L.Thigh.Inferior			L.Patella			L.Shank.Superior			L.Shank.Lateral			L.Shank.Inferior			R.Shank.Superior			R.Shank.Lateral			R.Shank.Inferior			R.Heel			R.Midfoot.Lateral			R.Toe			L.Heel			L.Midfoot.Lateral			L.Midfoot.Superior			L.Toe			L.Elbow			L.Wrist			R.Elbow			R.Wrist			
		X1	Y1	Z1	X2	Y2	Z2	X3	Y3	Z3	X4	Y4	Z4	X5	Y5	Z5	X6	Y6	Z6	X7	Y7	Z7	X8	Y8	Z8	X9	Y9	Z9	X10	Y10	Z10	X11	Y11	Z11	X12	Y12	Z12	X13	Y13	Z13	X14	Y14	Z14	X15	Y15	Z15	X16	Y16	Z16	X17	Y17	Z17	X18	Y18	Z18	X19	Y19	Z19	X20	Y20	Z20	X21	Y21	Z21	X22	Y22	Z22	X23	Y23	Z23	X24	Y24	Z24	X25	Y25	Z25	X26	Y26	Z26	X27	Y27	Z27	X28	Y28	Z28	X29	Y29	Z29	X30	Y30	Z30	X31	Y31	Z31	X32	Y32	Z32	X33	Y33	Z33	

18	54.256428571429	1159.087289849001	96.181868830747	594.571114910150	1000.914149960659	994.559796483682	603.725989552766	1123.403396294341	1426.607953677080	393.222548749585	1266.596102080625	1353.404541271892	516.761913026554	1242.107232963063	1426.944681032871	705.804890130788	1156.431652679545	1485.897755737845	547.318150512125	1249.903801111003	929.982808895708	663.850792008209	1176.161139665575	958.723924890665	398.970948687364	1274.447298849258	727.145587130843	614.958481182988	1204.124049824264	612.474752801650	681.836356726421	1259.848809793637	565.263106219073	584.201948037149	1256.553765095300	471.864972642740	586.306324020293	1267.036824783605	783.465423264135	415.736805664026	1219.873766316708	653.065245008859	335.212004331479	1329.445629641389	600.560605766396	388.079685573977	1356.621077881303	534.485635820680	380.201107918309	1341.747019124763	460.803768019839	363.109537106370	1275.133559244680	336.464664104284	298.255406597512	1362.920012599640	231.466243794564	341.505508522556	1210.463427695282	385.530635957196	595.532246728928	1130.285993126170	290.837927438567	664.196247771763	1144.934124844840	196.113022274620	591.740584569005	984.424140654633	43.553585504722	569.931119746479	1072.033169030034	37.048896733518	639.107458367112	1279.177900127870	45.241033237967	615.080283222494	1271.028594503491	65.696836666892	369.740949504115	1344.619841983200	56.512407322127	290.376795049095	1427.222772450506	121.650515531388	309.562896012083	1554.364075249691	69.905274809725	284.506191807607	957.654360379439	1110.897758001104	334.021455162901	906.321969105055	858.905782970289	386.793940691609	1473.200389982745	1183.061323622328	792.112202031805	1692.637205348947	1272.175621973711	693.699060181186	
19	54.278571428571	1154.454634735057	96.185842437373	594.599004547370	1001.441464429265	995.944525543007	601.251401486664	1123.219337304614	1427.389172732368	390.059996172194	1266.904949013388	1354.565804875965	513.161640935557	1242.853240531253	1428.554628405286	702.062665648390	1156.693662530553	1486.914464877081	543.921793855551	1250.090806244838	930.913915337374	661.550200229160	1176.461934950515	959.487455395813	396.732313149377	1272.008207869262	726.953711728705	613.687762925059	1199.803936593109	613.408348458650	681.201829588822	1254.894209412229	565.036448904399	584.004189190081	1250.408247868461	472.172962666421	586.348085585985	1266.445298103716	782.936519821241	414.248510360914	1218.105673313779	652.652645553884	334.137716882712	1327.060976995638	599.564837175864	387.268042833977	1353.009473948609	533.434680436692	380.025757332864	1339.054506052948	460.068068612434	362.933680212542	1273.846052900451	335.280620721582	297.657142148719	1361.710319421579	230.923706903836	341.961354109939	1204.709931115293	386.039159817137	595.547923978352	1124.886395704483	291.127451431805	664.209175043331	1139.866632876365	196.367607848759	591.721830157005	979.904234378512	43.505863940282	569.928212537410	1067.501166369950	37.031884602771	639.134773307958	1274.645738127724	45.338182966181	615.135258564647	1269.452380360823	66.850378217644	370.363644860042	1343.604559475149	55.961839901620	291.668120224674	1427.105889739858	119.633099546021	311.089732329268	1553.531792548215	65.474362023130	287.422513491304	957.703453410441	1111.209720300639	332.350966985938	908.478797969625	859.001436822552	386.956507415228	1477.117638191184	1187.928051760058	784.550025940455	1689.703972746564	1282.690316506473	677.503850636267	
20	54.300714285714	1149.863587002797	96.159621774520	594.588831487320	1002.219981855232	996.711942907492	598.440785450832	1123.551601560936	1427.532875895427	386.495929534486	1267.558231656531	1355.164901978480	509.394728831824	1243.637967464666	1429.647778269670	698.132229903382	1157.194432008548	1487.389314583281	540.171427571661	1250.568021181663	931.390840481051	659.194179172567	1177.261935286810	959.620239410359	394.355524378224	1270.317769401918	726.479304143957	612.257298099223	1196.424477855232	613.918441752920	680.274268703804	1251.030838520040	564.529276017744	583.522674620809	1245.466700817213	472.043651680821	586.077179780791	1266.386406895969	781.698705896137	412.656646078097	1216.824096396056	651.555901595214	333.162168230448	1325.095002258399	597.753991460046	386.596855872340	1349.717222969881	531.391693518654	379.961819339510	1336.230062126488	458.306046750106	362.870221752300	1271.547782587777	333.495918654076	297.387404177442	1358.815191491507	229.248711582729	342.736822451277	1199.907484246933	386.133108512715	595.253844102003	1120.188046894835	291.267103917554	663.998900124492	1135.182839545623	196.402282021996	591.563573423783	975.413239737258	43.476881415787	569.917946819744	1062.991231355146	37.016829740453	639.153681861710	1270.146189066167	45.347205946646	615.194645317630	1265.445377555810	66.669146774523	371.190290313695	1340.009952369325	54.758595851732	292.986810420768	1424.366858584182	116.967341404533	312.951787504766	1550.116535153537	60.815182484924	290.065624171813	958.442822175978	1110.882560369904	329.501099098248	911.090138968983	858.412475831358	385.175442835722	1480.777943909496	1192.084984872294	777.027608792718	1685.948288933998	1292.347823957123	661.435982487668	
21	54.322857142857	1145.321772145913	96.103754316637	594.538682439402	1003.243533202682	996.886148151446	595.336017966401	1124.355637738034	1427.078412699619	382.562582443707	1268.552949626856	1355.211907540928	505.440545886734	1244.531183328222	1430.204330099141	694.012910838993	1157.948930617620	1487.340651520851	536.096966271435	1251.354725749685	931.419360155703	656.714441343500	1178.478036747491	959.144636304029	391.798565630215	1269.400017825205	725.724754834856	610.608617675201	1194.034369197443	613.999539779104	678.995606957820	1248.292552120777	563.738254213219	582.684997043879	1241.767132775464	471.468759880734	585.429845815349	1266.774882690294	779.784436242714	410.859877492406	1215.904735340780	649.804570138924	332.209448418037	1323.463629862369	595.188786307128	385.941841105246	1346.726885524990	528.499169945044	379.906518593877	1333.335291098799	455.654325767932	362.830907375417	1268.462563341833	331.118712692615	297.337245102839	1354.619082711557	226.561786364518	343.737642987300	1196.081381052491	385.810375424740	594.611548165033	1116.212520764124	291.264874591299	663.539775665231	1130.896418569182	196.218386283440	591.253246986874	970.952077623206	43.464895747684	569.904855846177	1058.506589301208	36.999523585421	639.164644609121	1265.681807666617	45.270103880012	615.255410739562	1259.643973762253	65.103363575188	372.085850232140	1334.527596277715	52.932175886264	294.222841003020	1419.550084457247	113.869516580116	315.040966130240	1544.796210570587	56.372696704460	292.430230475037	959.886556788605	1109.934394855789	325.514359382903	914.187106944474	857.135448526622	381.453945327181	1484.198024246901	1195.406493683785	769.547489319393	1681.492041098237	1300.954848378841	645.662875283729	
